<svg width="20" height="18" xmlns="http://www.w3.org/2000/svg">

 <g>
  <title>background</title>
  <rect fill="none" id="canvas_background" height="20" width="22" y="-1" x="-1"/>
 </g>
 <g>
  <g stroke="null" id="svg_9">
   <title stroke="null">Layer 1</title>
   <path stroke="null" id="svg_5" d="m10,18c-0.121487,0 -0.243034,-0.046352 -0.335737,-0.139055l-8.961689,-8.961689c-0.092703,-0.092703 -0.139055,-0.21419 -0.139055,-0.335737s0.046352,-0.243034 0.139055,-0.335737c0.185406,-0.185406 0.486008,-0.185406 0.671414,0l8.626012,8.626012l8.625952,-8.625952c0.185465,-0.185406 0.486008,-0.185406 0.671474,0c0.185406,0.185465 0.185406,0.486008 0,0.671474l-8.961689,8.961689c-0.092703,0.092644 -0.21419,0.138995 -0.335737,0.138995z"/>
   <path stroke="null" id="svg_7" d="m10,9.911272c-0.121487,0 -0.243034,-0.046352 -0.335737,-0.139055l-8.961689,-8.961689c-0.092703,-0.092703 -0.139055,-0.21425 -0.139055,-0.335737s0.046352,-0.243034 0.139055,-0.335737c0.185406,-0.185406 0.486008,-0.185406 0.671414,0l8.626012,8.625952l8.625952,-8.625952c0.185465,-0.185406 0.486008,-0.185406 0.671474,0c0.185406,0.185406 0.185406,0.486008 0,0.671414l-8.961689,8.961689c-0.092703,0.092762 -0.21419,0.139114 -0.335737,0.139114z"/>
  </g>
 </g>
</svg>